<?xml version="1.0" encoding="UTF-8"?>
<svg width="40" height="40" viewBox="0 0 40 40" fill="none" xmlns="http://www.w3.org/2000/svg">
  <!-- Flower petals -->
  <path d="M20 4C14.5 4 10 8.5 10 14C10 19.5 14.5 24 20 24C25.5 24 30 19.5 30 14C30 8.5 25.5 4 20 4Z" fill="#E6D5F7"/>
  <path d="M32.5 20C28.9 20 26 22.9 26 26.5C26 30.1 28.9 33 32.5 33C36.1 33 39 30.1 39 26.5C39 22.9 36.1 20 32.5 20Z" fill="#E6D5F7"/>
  <path d="M7.5 20C3.9 20 1 22.9 1 26.5C1 30.1 3.9 33 7.5 33C11.1 33 14 30.1 14 26.5C14 22.9 11.1 20 7.5 20Z" fill="#E6D5F7"/>
  <path d="M20 28C16.4 28 13.5 30.9 13.5 34.5C13.5 38.1 16.4 41 20 41C23.6 41 26.5 38.1 26.5 34.5C26.5 30.9 23.6 28 20 28Z" fill="#E6D5F7"/>
  
  <!-- Center circle -->
  <circle cx="20" cy="20" r="8" fill="#8B0AA5"/>
</svg>